<mxfile host="app.diagrams.net" modified="2024-01-04T16:03:34.244Z" agent="Mozilla/5.0 (Windows NT 10.0; Win64; x64) AppleWebKit/537.36 (KHTML, like Gecko) Chrome/118.0.0.0 YaBrowser/23.11.0.0 Safari/537.36" version="22.1.16" etag="r9Uw3jCGNF-zDt1n5ewG" type="github">
  <diagram name="Страница — 1" id="2JZrNbNPBHLz8LqCKl2P">
    <mxGraphModel>
      <root>
        <mxCell id="0" />
        <mxCell id="1" parent="0" />
      </root>
    </mxGraphModel>
  </diagram>
</mxfile>
